<mxfile host="app.diagrams.net" modified="2024-03-05T07:12:07.294Z" agent="Mozilla/5.0 (Windows NT 10.0; Win64; x64) AppleWebKit/537.36 (KHTML, like Gecko) Chrome/122.0.0.0 Safari/537.36 Edg/122.0.0.0" version="24.0.1" etag="_WOh40_qzao4r2exInuk" type="github">
  <diagram name="第 1 页" id="A8sIAYxdoXAtrlfPjnJ8">
    <mxGraphModel>
      <root>
        <mxCell id="0" />
        <mxCell id="1" parent="0" />
      </root>
    </mxGraphModel>
  </diagram>
</mxfile>
